<svg xmlns="http://www.w3.org/2000/svg">
  <defs>
    <style type="text/css">
        line.axis {
          fill: none;
          stroke: black;
          stroke-width: 1
        }
        line.grid {
          fill: none;
          stroke: #888;
          stroke-width: 0.5
        }
        polyline {
          fill: none;
          stroke: blue;
          stroke-width: 1;
        }
      </style>
  </defs>
  <g transform="translate(100,100)">
    <!--x axis-->
    <line class="axis" x1="0" y1="480" x2="480" y2="480"/>
    <!--y axis-->
    <line class="axis" x1="0" y1="480" x2="0" y2="0"/>
    <!--x ticks-->
    <line class="grid" x1="64.13682522715125" y1="480" x2="64.13682522715125" y2="0"/>
    <text x="49.13682522715125" y="500">1000</text>
    <line class="grid" x1="128.2736504543025" y1="480" x2="128.2736504543025" y2="0"/>
    <text x="113.2736504543025" y="500">2000</text>
    <line class="grid" x1="192.4104756814538" y1="480" x2="192.4104756814538" y2="0"/>
    <text x="177.4104756814538" y="500">3000</text>
    <line class="grid" x1="256.547300908605" y1="480" x2="256.547300908605" y2="0"/>
    <text x="241.547300908605" y="500">4000</text>
    <line class="grid" x1="320.6841261357563" y1="480" x2="320.6841261357563" y2="0"/>
    <text x="305.6841261357563" y="500">5000</text>
    <line class="grid" x1="384.8209513629076" y1="480" x2="384.8209513629076" y2="0"/>
    <text x="369.8209513629076" y="500">6000</text>
    <line class="grid" x1="448.95777659005876" y1="480" x2="448.95777659005876" y2="0"/>
    <text x="433.95777659005876" y="500">7000</text>
    <!--y ticks-->
    <line class="grid" x1="0" y1="419.64541682384004" x2="480" y2="419.64541682384004"/>
    <text x="-60" y="424.64541682384004">1</text>
    <line class="grid" x1="0" y1="359.2908336476801" x2="480" y2="359.2908336476801"/>
    <text x="-60" y="364.2908336476801">2</text>
    <line class="grid" x1="0" y1="298.93625047152017" x2="480" y2="298.93625047152017"/>
    <text x="-60" y="303.93625047152017">3</text>
    <line class="grid" x1="0" y1="238.5816672953602" x2="480" y2="238.5816672953602"/>
    <text x="-60" y="243.5816672953602">4</text>
    <line class="grid" x1="0" y1="178.2270841192003" x2="480" y2="178.2270841192003"/>
    <text x="-60" y="183.2270841192003">5</text>
    <line class="grid" x1="0" y1="117.87250094304034" x2="480" y2="117.87250094304034"/>
    <text x="-60" y="122.87250094304034">6</text>
    <line class="grid" x1="0" y1="57.51791776688037" x2="480" y2="57.51791776688037"/>
    <text x="-60" y="62.51791776688037">7</text>
    <text x="0" y="530">x = Size of input (nodes), y = Run time (user + system), z (lines) = Run time (user + system)</text>
    <polyline points="0.8337787279529664,477.8272350056582 1.5392838054516302,475.0509241795549 1.6675574559059327,477.4047529234251 1.8599679315873865,477.6461712561298 1.9882415820416888,476.25801584307806 2.05237840726884,476.6804979253112 2.05237840726884,476.3787250094304 2.693746659540353,477.5254620897774 2.950293960448958,476.01659751037346 2.950293960448958,475.83553376084495 14.75146980224479,474.0248962655602 31.81186531266702,470.70539419087135 55.15766969535008,464.7906450396077 77.79796900053447,458.1516408902301 86.4564404061999,455.4960392304791 103.90165686798504,449.7019992455677 146.74505611972205,431.7163334590721 243.01443078567613,376.9143719351188 347.55745590593267,302.31610712938516 473.650454302512,172.6744624669936 480,163.19879290833643"/>
    <text x="483" y="163.19879290833643">inside-out</text>
    <polyline points="0.8337787279529664,479.45680875141454 1.5392838054516302,479.0946812523576 1.6675574559059327,479.33609958506224 1.8599679315873865,479.33609958506224 1.9882415820416888,479.33609958506224 2.05237840726884,479.45680875141454 2.05237840726884,479.33609958506224 2.693746659540353,479.3964541682384 2.950293960448958,479.33609958506224 2.950293960448958,479.2757450018861 14.75146980224479,478.5514900037722 31.81186531266702,476.74085250848736 55.15766969535008,472.33496793662766 77.79796900053447,466.23915503583555 86.4564404061999,462.4971708789136 103.90165686798504,455.3149754809506 146.74505611972205,432.80271595624293 243.01443078567613,352.83289324783095 347.55745590593267,226.3296869105998 473.650454302512,3.500565824217176 480,0"/>
    <text x="483" y="0">right-sibling</text>
  </g>
</svg>