<svg xmlns="http://www.w3.org/2000/svg">
  <defs>
    <style type="text/css">
        line.axis {
          fill: none;
          stroke: black;
          stroke-width: 1
        }
        line.grid {
          fill: none;
          stroke: #888;
          stroke-width: 0.5
        }
        polyline {
          fill: none;
          stroke: blue;
          stroke-width: 1;
        }
      </style>
  </defs>
  <g transform="translate(100,100)">
    <!--x axis-->
    <line class="axis" x1="0" y1="480" x2="480" y2="480"/>
    <!--y axis-->
    <line class="axis" x1="0" y1="480" x2="0" y2="0"/>
    <!--x ticks-->
    <line class="grid" x1="64.13682522715125" y1="480" x2="64.13682522715125" y2="0"/>
    <text x="49.13682522715125" y="500">1000</text>
    <line class="grid" x1="128.2736504543025" y1="480" x2="128.2736504543025" y2="0"/>
    <text x="113.2736504543025" y="500">2000</text>
    <line class="grid" x1="192.4104756814538" y1="480" x2="192.4104756814538" y2="0"/>
    <text x="177.4104756814538" y="500">3000</text>
    <line class="grid" x1="256.547300908605" y1="480" x2="256.547300908605" y2="0"/>
    <text x="241.547300908605" y="500">4000</text>
    <line class="grid" x1="320.6841261357563" y1="480" x2="320.6841261357563" y2="0"/>
    <text x="305.6841261357563" y="500">5000</text>
    <line class="grid" x1="384.8209513629076" y1="480" x2="384.8209513629076" y2="0"/>
    <text x="369.8209513629076" y="500">6000</text>
    <line class="grid" x1="448.95777659005876" y1="480" x2="448.95777659005876" y2="0"/>
    <text x="433.95777659005876" y="500">7000</text>
    <!--y ticks-->
    <line class="grid" x1="0" y1="410.47321379168096" x2="480" y2="410.47321379168096"/>
    <text x="-60" y="415.47321379168096">1000</text>
    <line class="grid" x1="0" y1="340.9464275833619" x2="480" y2="340.9464275833619"/>
    <text x="-60" y="345.9464275833619">2000</text>
    <line class="grid" x1="0" y1="271.41964137504283" x2="480" y2="271.41964137504283"/>
    <text x="-60" y="276.41964137504283">3000</text>
    <line class="grid" x1="0" y1="201.8928551667238" x2="480" y2="201.8928551667238"/>
    <text x="-60" y="206.8928551667238">4000</text>
    <line class="grid" x1="0" y1="132.36606895840475" x2="480" y2="132.36606895840475"/>
    <text x="-60" y="137.36606895840475">5000</text>
    <line class="grid" x1="0" y1="62.839282750085715" x2="480" y2="62.839282750085715"/>
    <text x="-60" y="67.83928275008572">6000</text>
    <text x="0" y="530">x = Size of input (nodes), y = Run time (user + system), z (lines) = Run time (user + system)</text>
    <polyline points="0.8337787279529664,479.9974970356965 1.5392838054516302,479.9942988035309 1.6675574559059327,479.99701034819304 1.8599679315873865,479.99728845533787 1.9882415820416888,479.9956893392551 2.05237840726884,479.9961760267585 2.05237840726884,479.9958283928275 2.693746659540353,479.99714940176545 2.950293960448958,479.99541123211026 2.950293960448958,479.99520265175164 14.75146980224479,479.99311684816536 31.81186531266702,479.98929287492393 55.15766969535008,479.9824792498755 77.79796900053447,479.9748313033926 86.4564404061999,479.97177212479943 103.90165686798504,479.9650975533234 146.74505611972205,479.9443785710333 243.01443078567613,479.8812482491562 347.55745590593267,479.7953131414027 473.650454302512,479.6459696046272 480,479.63505389919254"/>
    <text x="483" y="479.63505389919254">inside-out</text>
    <polyline points="0.8337787279529664,479.99930473213794 1.5392838054516302,479.99902662499306 1.6675574559059327,479.99895709820686 1.8599679315873865,479.99888757142065 1.9882415820416888,479.9981227767724 2.05237840726884,479.99909615177927 2.05237840726884,479.9980532499862 2.693746659540353,479.99902662499306 2.950293960448958,479.996662714262 2.950293960448958,479.9965236606896 14.75146980224479,479.7695187037194 31.81186531266702,478.8217990809138 55.15766969535008,475.8867953279158 77.79796900053447,471.14117500848084 86.4564404061999,469.59517739035266 103.90165686798504,465.23355351114617 146.74505611972205,448.6096294019509 243.01443078567613,386.92011111539216 347.55745590593267,280.33005524192856 473.650454302512,0 480,70.81699477998689"/>
    <text x="483" y="70.81699477998689">outside-in</text>
    <polyline points="0.8337787279529664,479.99937425892415 1.5392838054516302,479.99895709820686 1.6675574559059327,479.9992352053517 1.8599679315873865,479.9992352053517 1.9882415820416888,479.9992352053517 2.05237840726884,479.99937425892415 2.05237840726884,479.9992352053517 2.693746659540353,479.99930473213794 2.950293960448958,479.9992352053517 2.950293960448958,479.9991656785655 14.75146980224479,479.998331357131 31.81186531266702,479.9962455535447 55.15766969535008,479.99117009815154 77.79796900053447,479.9841478927445 86.4564404061999,479.97983723199957 103.90165686798504,479.9715635444408 146.74505611972205,479.9456300531851 243.01443078567613,479.8535070614591 347.55745590593267,479.70777891756643 473.650454302512,479.4510860228853 480,479.44705346928527"/>
    <text x="483" y="479.44705346928527">right-sibling</text>
  </g>
</svg>