<svg xmlns="http://www.w3.org/2000/svg">
  <defs>
    <style type="text/css">
        line.axis {
          fill: none;
          stroke: black;
          stroke-width: 1
        }
        line.grid {
          fill: none;
          stroke: #888;
          stroke-width: 0.5
        }
        polyline {
          fill: none;
          stroke: blue;
          stroke-width: 1;
        }
      </style>
  </defs>
  <g transform="translate(100,100)">
    <!--x axis-->
    <line class="axis" x1="0" y1="480" x2="480" y2="480"/>
    <!--y axis-->
    <line class="axis" x1="0" y1="480" x2="0" y2="0"/>
    <!--x ticks-->
    <line class="grid" x1="64.13682522715125" y1="480" x2="64.13682522715125" y2="0"/>
    <text x="49.13682522715125" y="500">1000</text>
    <line class="grid" x1="128.2736504543025" y1="480" x2="128.2736504543025" y2="0"/>
    <text x="113.2736504543025" y="500">2000</text>
    <line class="grid" x1="192.4104756814538" y1="480" x2="192.4104756814538" y2="0"/>
    <text x="177.4104756814538" y="500">3000</text>
    <line class="grid" x1="256.547300908605" y1="480" x2="256.547300908605" y2="0"/>
    <text x="241.547300908605" y="500">4000</text>
    <line class="grid" x1="320.6841261357563" y1="480" x2="320.6841261357563" y2="0"/>
    <text x="305.6841261357563" y="500">5000</text>
    <line class="grid" x1="384.8209513629076" y1="480" x2="384.8209513629076" y2="0"/>
    <text x="369.8209513629076" y="500">6000</text>
    <line class="grid" x1="448.95777659005876" y1="480" x2="448.95777659005876" y2="0"/>
    <text x="433.95777659005876" y="500">7000</text>
    <!--y ticks-->
    <line class="grid" x1="0" y1="445.7556235686921" x2="480" y2="445.7556235686921"/>
    <text x="-60" y="450.7556235686921">10</text>
    <line class="grid" x1="0" y1="411.51124713738415" x2="480" y2="411.51124713738415"/>
    <text x="-60" y="416.51124713738415">20</text>
    <line class="grid" x1="0" y1="377.26687070607625" x2="480" y2="377.26687070607625"/>
    <text x="-60" y="382.26687070607625">30</text>
    <line class="grid" x1="0" y1="343.0224942747683" x2="480" y2="343.0224942747683"/>
    <text x="-60" y="348.0224942747683">40</text>
    <line class="grid" x1="0" y1="308.77811784346045" x2="480" y2="308.77811784346045"/>
    <text x="-60" y="313.77811784346045">50</text>
    <line class="grid" x1="0" y1="274.5337414121525" x2="480" y2="274.5337414121525"/>
    <text x="-60" y="279.5337414121525">60</text>
    <line class="grid" x1="0" y1="240.28936498084457" x2="480" y2="240.28936498084457"/>
    <text x="-60" y="245.28936498084457">70</text>
    <line class="grid" x1="0" y1="206.04498854953664" x2="480" y2="206.04498854953664"/>
    <text x="-60" y="211.04498854953664">80</text>
    <line class="grid" x1="0" y1="171.80061211822874" x2="480" y2="171.80061211822874"/>
    <text x="-60" y="176.80061211822874">90</text>
    <line class="grid" x1="0" y1="137.55623568692084" x2="480" y2="137.55623568692084"/>
    <text x="-60" y="142.55623568692084">100</text>
    <line class="grid" x1="0" y1="103.31185925561289" x2="480" y2="103.31185925561289"/>
    <text x="-60" y="108.31185925561289">110</text>
    <line class="grid" x1="0" y1="69.06748282430499" x2="480" y2="69.06748282430499"/>
    <text x="-60" y="74.06748282430499">120</text>
    <line class="grid" x1="0" y1="34.82310639299703" x2="480" y2="34.82310639299703"/>
    <text x="-60" y="39.82310639299703">130</text>
    <line class="grid" x1="0" y1="0.5787299616891346" x2="480" y2="0.5787299616891346"/>
    <text x="-60" y="5.578729961689135">140</text>
    <text x="0" y="530">x = Size of input (nodes), y = Run time (user + system), z (lines) = Run time (user + system)</text>
    <polyline points="0.8337787279529664,468.01446824904224 1.5392838054516302,455.87483680414357 1.6675574559059327,462.2442908203668 1.8599679315873865,461.8539049290499 1.9882415820416888,449.9848040579586 2.05237840726884,455.9981165592963 2.05237840726884,450.0498683731781 2.693746659540353,461.8744515549087 2.950293960448958,443.8995783661152 2.950293960448958,443.6427455428804 14.75146980224479,441.5504141429275 31.81186531266702,440.00256832823237 55.15766969535008,437.923934678852 77.79796900053447,436.09528497742014 86.4564404061999,435.9035164694048 103.90165686798504,434.7700276095285 146.74505611972205,431.99965755623566 243.01443078567613,427.4999464931618 347.55745590593267,422.52766303533593 473.650454302512,419.5347045352396 480,419.88742161248206"/>
    <text x="483" y="419.88742161248206">inside-out</text>
    <polyline points="0.8337787279529664,473.54835948034156 1.5392838054516302,473.54835948034156 1.6675574559059327,473.5757549814866 1.8599679315873865,473.5791794191298 1.9882415820416888,473.3942597864007 2.05237840726884,473.4045330993301 2.05237840726884,473.3531665346831 2.693746659540353,473.54151060505535 2.950293960448958,473.1682469019541 2.950293960448958,473.1374269631659 14.75146980224479,471.36014382638103 31.81186531266702,469.31917899107503 55.15766969535008,465.0009631230871 77.79796900053447,459.3335188237057 86.4564404061999,456.85422597007897 103.90165686798504,451.53607431029684 146.74505611972205,436.221989170216 243.01443078567613,377.04770669691584 347.55745590593267,278.7252530873446 473.650454302512,0 480,47.64077649123567"/>
    <text x="483" y="47.64077649123567">outside-in</text>
    <polyline points="0.8337787279529664,473.39083534875755 1.5392838054516302,473.3805620358282 1.6675574559059327,473.58602829441605 1.8599679315873865,473.58602829441605 1.9882415820416888,473.4695974145496 2.05237840726884,473.54151060505535 2.05237840726884,473.3839864734713 2.693746659540353,473.58945273205916 2.950293960448958,473.4730218521927 2.950293960448958,473.4695974145496 14.75146980224479,473.20249127838537 31.81186531266702,472.74361663420586 55.15766969535008,472.52445262504546 77.79796900053447,472.27789311474004 86.4564404061999,471.90805384928194 103.90165686798504,471.79504740705863 146.74505611972205,470.97660681035035 243.01443078567613,469.76093144703896 347.55745590593267,468.63086702480575 473.650454302512,466.5214134366372 480,466.2508828628299"/>
    <text x="483" y="466.2508828628299">right-sibling</text>
  </g>
</svg>