<svg xmlns="http://www.w3.org/2000/svg">
  <defs>
    <style type="text/css">
        line.axis {
          fill: none;
          stroke: black;
          stroke-width: 1
        }
        line.grid {
          fill: none;
          stroke: #888;
          stroke-width: 0.5
        }
        polyline {
          fill: none;
          stroke: blue;
          stroke-width: 1;
        }
      </style>
  </defs>
  <g transform="translate(100,100)">
    <!--x axis-->
    <line class="axis" x1="0" y1="480" x2="480" y2="480"/>
    <!--y axis-->
    <line class="axis" x1="0" y1="480" x2="0" y2="0"/>
    <!--x ticks-->
    <line class="grid" x1="64.13682522715125" y1="480" x2="64.13682522715125" y2="0"/>
    <text x="49.13682522715125" y="500">1000</text>
    <line class="grid" x1="128.2736504543025" y1="480" x2="128.2736504543025" y2="0"/>
    <text x="113.2736504543025" y="500">2000</text>
    <line class="grid" x1="192.4104756814538" y1="480" x2="192.4104756814538" y2="0"/>
    <text x="177.4104756814538" y="500">3000</text>
    <line class="grid" x1="256.547300908605" y1="480" x2="256.547300908605" y2="0"/>
    <text x="241.547300908605" y="500">4000</text>
    <line class="grid" x1="320.6841261357563" y1="480" x2="320.6841261357563" y2="0"/>
    <text x="305.6841261357563" y="500">5000</text>
    <line class="grid" x1="384.8209513629076" y1="480" x2="384.8209513629076" y2="0"/>
    <text x="369.8209513629076" y="500">6000</text>
    <line class="grid" x1="448.95777659005876" y1="480" x2="448.95777659005876" y2="0"/>
    <text x="433.95777659005876" y="500">7000</text>
    <!--y ticks-->
    <line class="grid" x1="0" y1="418.5711731664551" x2="480" y2="418.5711731664551"/>
    <text x="-60" y="423.5711731664551">1000</text>
    <line class="grid" x1="0" y1="357.14234633291017" x2="480" y2="357.14234633291017"/>
    <text x="-60" y="362.14234633291017">2000</text>
    <line class="grid" x1="0" y1="295.7135194993653" x2="480" y2="295.7135194993653"/>
    <text x="-60" y="300.7135194993653">3000</text>
    <line class="grid" x1="0" y1="234.2846926658204" x2="480" y2="234.2846926658204"/>
    <text x="-60" y="239.2846926658204">4000</text>
    <line class="grid" x1="0" y1="172.85586583227547" x2="480" y2="172.85586583227547"/>
    <text x="-60" y="177.85586583227547">5000</text>
    <line class="grid" x1="0" y1="111.42703899873061" x2="480" y2="111.42703899873061"/>
    <text x="-60" y="116.42703899873061">6000</text>
    <line class="grid" x1="0" y1="49.99821216518569" x2="480" y2="49.99821216518569"/>
    <text x="-60" y="54.99821216518569">7000</text>
    <text x="0" y="530">x = Size of input (nodes), y = Run time (user + system), z (lines) = Run time (user + system)</text>
    <polyline points="0.8337787279529664,479.75066039188266 1.5392838054516302,479.4869464382862 1.6675574559059327,479.6185884141905 1.8599679315873865,479.61993984838085 1.9882415820416888,479.368573088978 2.05237840726884,479.49634504879174 2.05237840726884,479.3643344999265 2.693746659540353,479.6211069960907 2.950293960448958,479.23871254905185 2.950293960448958,479.2358253941907 14.75146980224479,478.66797731894144 31.81186531266702,473.87167594860506 55.15766969535008,451.64531353721134 77.79796900053447,406.3019321541643 86.4564404061999,379.76922469525863 103.90165686798504,310.7691106679988 146.74505611972205,0"/>
    <text x="149.74505611972205" y="0">inside-out</text>
    <polyline points="0.8337787279529664,479.85852941180235 1.5392838054516302,479.8540451074435 1.6675574559059327,479.8599422748195 1.8599679315873865,479.85723940643885 1.9882415820416888,479.85723940643885 2.05237840726884,479.85656368934366 2.05237840726884,479.85582654342164 2.693746659540353,479.8589594135902 2.950293960448958,479.8499908048725 2.950293960448958,479.8492536589505 14.75146980224479,479.3185700239355 31.81186531266702,477.0175690284046 55.15766969535008,469.92493525337665 77.79796900053447,458.2705967976897 86.4564404061999,454.24590292120945 103.90165686798504,443.64992172303766 146.74505611972205,400.95602707014825"/>
    <text x="149.74505611972205" y="400.95602707014825">outside-in</text>
    <polyline points="0.8337787279529664,479.8123349340235 1.5392838054516302,479.815836377153 1.6675574559059327,479.8168806672092 1.8599679315873865,479.81767924195805 1.9882415820416888,479.8162663789409 2.05237840726884,479.81712638251656 2.05237840726884,479.81092207100636 2.693746659540353,479.8146078006164 2.950293960448958,479.8193992491094 2.950293960448958,479.8168806672092 14.75146980224479,479.8126420781577 31.81186531266702,479.8012777451935 55.15766969535008,479.7863505402729 77.79796900053447,479.74734323523364 86.4564404061999,479.7281160124347 103.90165686798504,479.6974630278448 146.74505611972205,479.5743596588704 243.01443078567613,479.13796927304486 347.55745590593267,478.49904804514915 473.650454302512,477.1595310472169 480,477.1604524796194"/>
    <text x="483" y="477.1604524796194">right-sibling</text>
  </g>
</svg>